# xmcd CD database file
#
# Track frame offsets:
#	150
#	25024
#	46570
#	64983
#	87943
#	112860
#	134304
#	157542
#	180922
#	205465
#	228794
#	256684
#	276948
#
# Disc length: 4011 seconds
#
# Revision: 0
# Processed by: cddbd v1.5.1PL0 Copyright (c) Steve Scherf et al.
# Submitted via: CDex 1.51
#
DISCID=950fa90d
DTITLE=Various Artist - Funky Juice Collection Vol.1 from the vaults of funky juice records
DYEAR=2005
DGENRE=Jazz
TTITLE0=Contas Novas (Bossa-noite mix) - Panaphonic ft. Liliana Gimenez
TTITLE1=Maracana (radio edit) - BungaLove
TTITLE2=Linda Cancao (radio edit) - Barrio Jazz Gang
TTITLE3=Batambique (album version) - Cuban Jazz Combo
TTITLE4=Broken blues - Guanavana
TTITLE5=Sunday Show (radio edit) - Barrio Jazz Gang ft. Eddie Henderson
TTITLE6=Cosmic Odissey (orig. cut) - Space star
TTITLE7=Kyry Kyry (Bunga Love Remix)- Tasha Rodrigues
TTITLE8=Taormina chase (radio edit) - L.E.D.
TTITLE9=Footsteps in the green (radio edit) - Barrio Jazz Gang
TTITLE10=Lendas de bahia (Doum Doum remix) - Panaphonic
TTITLE11=Frisco party - L.E.D.
TTITLE12=Tropical man's revenge (remix) - Roby J.C. Sound
EXTD=YEAR: 2005
EXTT0=
EXTT1=
EXTT2=
EXTT3=
EXTT4=
EXTT5=
EXTT6=
EXTT7=
EXTT8=
EXTT9=
EXTT10=
EXTT11=
EXTT12=
PLAYORDER=
